<?xml version="1.0" encoding="UTF-8" standalone="no"?>
<svg
   xmlns:dc="http://purl.org/dc/elements/1.1/"
   xmlns:cc="http://creativecommons.org/ns#"
   xmlns:rdf="http://www.w3.org/1999/02/22-rdf-syntax-ns#"
   xmlns:svg="http://www.w3.org/2000/svg"
   xmlns="http://www.w3.org/2000/svg"
   xmlns:sodipodi="http://sodipodi.sourceforge.net/DTD/sodipodi-0.dtd"
   xmlns:inkscape="http://www.inkscape.org/namespaces/inkscape"
   version="1.1"
   id="Layer_1"
   x="0px"
   y="0px"
   viewBox="0 0 276.69347 198.91385"
   enable-background="new 0 0 841.9 595.3"
   xml:space="preserve"
   sodipodi:docname="sc-apps-kube_logo.svg"
   inkscape:version="1.0.2 (e86c870879, 2021-01-15)"
   inkscape:export-filename="/home/mollekopf/src/fluttertest/kolabdo/sc-apps-kube_logo.png"
   inkscape:export-xdpi="96"
   inkscape:export-ydpi="96"
   width="276.69348"
   height="198.91385"><metadata
   id="metadata17"><rdf:RDF><cc:Work
       rdf:about=""><dc:format>image/svg+xml</dc:format><dc:type
         rdf:resource="http://purl.org/dc/dcmitype/StillImage" /><dc:title></dc:title></cc:Work></rdf:RDF></metadata><defs
   id="defs15"><rect
     x="1266.4996"
     y="-30.667215"
     width="937.78137"
     height="77.814957"
     id="rect55" /><rect
     x="84.227814"
     y="-153.54788"
     width="60.924332"
     height="58.116737"
     id="rect25" /></defs><sodipodi:namedview
   pagecolor="#ffffff"
   bordercolor="#666666"
   borderopacity="1"
   objecttolerance="10"
   gridtolerance="10"
   guidetolerance="10"
   inkscape:pageopacity="0"
   inkscape:pageshadow="2"
   inkscape:window-width="2560"
   inkscape:window-height="1410"
   id="namedview13"
   showgrid="false"
   inkscape:zoom="0.86678987"
   inkscape:cx="238.45925"
   inkscape:cy="100.94999"
   inkscape:window-x="0"
   inkscape:window-y="0"
   inkscape:window-maximized="1"
   inkscape:current-layer="Layer_1" />
<polygon
   fill="#E74011"
   points="256.5,392.6 292.5,392.8 253.2,329.9 286.1,265.7 250.1,265.5 217.3,329.7 "
   id="polygon2"
   style="fill:#2196f3;fill-opacity:1"
   transform="translate(-145.2,-196.7)" />

<path
   fill="#e74011"
   d="m 216.29347,91.21385 c 15.5,0 27.7,9.5 27.7,22 v 35.1 c 0,14.2 -6.3,24.8 -27.7,24.8 -23.2,0 -33.6,-16.1 -33.6,-40.6 -0.1,-24.7 11.9,-41.3 33.6,-41.3 m -1.8,107.7 c 43.2,0 62.2,-20.7 62.2,-48.4 v -149.2 h -32.7 v 75.1 c -7.4,-5.4 -16.7,-9.8 -33.6,-9.8 -35.7,0 -61.9,23.9 -61.9,65.9 -0.1,39.5 24.9,66.4 66,66.4"
   id="path6"
   style="fill:#2196f3;fill-opacity:1" />

<polygon
   fill="#E74011"
   points="237.4,265.4 201.5,265.2 178,311.2 178,310.8 178,196.7 145.2,196.7 145.2,393 178,393 178,344.3 207.9,392.3 243.8,392.5 204.6,329.6 "
   id="polygon10"
   style="fill:#2196f3;fill-opacity:1"
   transform="translate(-145.2,-196.7)" />
<text
   xml:space="preserve"
   id="text23"
   style="font-style:normal;font-weight:normal;font-size:40px;line-height:1.25;font-family:sans-serif;letter-spacing:0px;word-spacing:0px;white-space:pre;shape-inside:url(#rect25);fill:#000000;fill-opacity:1;stroke:none;"
   transform="translate(-145.2,-196.7)" /><text
   xml:space="preserve"
   id="text53"
   style="font-style:normal;font-weight:normal;font-size:40px;line-height:1.25;font-family:sans-serif;letter-spacing:0px;word-spacing:0px;white-space:pre;shape-inside:url(#rect55);fill:#000000;fill-opacity:1;stroke:none;"
   transform="translate(-145.2,-196.7)" /></svg>
